<?xml version="1.0" encoding="iso-8859-1"?>
<!-- Generator: Adobe Illustrator 18.1.1, SVG Export Plug-In . SVG Version: 6.00 Build 0)  -->
<svg xmlns="http://www.w3.org/2000/svg" xmlns:xlink="http://www.w3.org/1999/xlink" version="1.1" id="Capa_1" x="0px" y="0px" viewBox="0 0 113.213 113.213" style="enable-background:new 0 0 113.213 113.213;" xml:space="preserve" width="512px" height="512px">
<g>
	<g>
		<g>
			<path d="M81.541,97.715c-0.551,0-1.084-0.104-1.593-0.265c-6.789,4.481-14.909,7.108-23.638,7.108     c-8.647,0-16.688-2.588-23.441-6.989c-0.39,0.082-0.791,0.147-1.199,0.147h-4.341c7.952,6.374,18.02,10.214,28.982,10.214     c10.958,0,21.029-3.837,28.982-10.214H81.541z" fill="#FFFFFF"/>
			<path d="M73.542,21.382l0.991,1.188c14.637,6.882,24.823,21.724,24.823,38.945     c0,2.061-0.197,4.076-0.483,6.059h3.411c0.258-1.993,0.44-3.998,0.44-6.059c0-19.505-12.104-36.204-29.182-43.068     C73.542,18.447,73.542,21.382,73.542,21.382z" fill="#FFFFFF"/>
			<path d="M13.736,67.574c-0.283-1.986-0.48-3.998-0.48-6.059c0-17.221,10.182-32.063,24.819-38.945     l0.991-1.188v-2.931C21.988,25.319,9.885,42.018,9.885,61.519c0,2.061,0.183,4.076,0.444,6.059h3.407V67.574z" fill="#FFFFFF"/>
		</g>
		<g>
			<path d="M69.963,22.674v-1.245v-7.451V6.526c0-0.676-0.555-1.242-1.238-1.242H43.884     c-0.684,0-1.245,0.555-1.245,1.242v7.451v7.451v1.245l-3.103,3.726c0,1.027,0.834,1.865,1.861,1.865h29.808     c1.027,0,1.861-0.83,1.861-1.865L69.963,22.674z M58.786,27.645h-4.964c-0.172,0-0.311-0.136-0.311-0.311     c0-0.172,0.14-0.311,0.311-0.311h4.964c0.175,0,0.315,0.14,0.315,0.311C59.101,27.509,58.962,27.645,58.786,27.645z      M51.188,26.399l0.948-1.131h8.342l0.952,1.131H51.188z M68.22,20.48c0,0.598-0.487,1.084-1.081,1.084H45.476     c-0.594,0-1.081-0.487-1.081-1.084V7.485c0-0.601,0.487-1.084,1.081-1.084h21.663c0.594,0,1.081,0.483,1.081,1.084     C68.22,7.485,68.22,20.48,68.22,20.48z" fill="#FFFFFF"/>
			<path d="M110.111,88.553v-1.253V79.85v-7.451c0-0.676-0.558-1.245-1.249-1.245h-24.83     c-0.687,0.007-1.249,0.558-1.249,1.253v7.451v7.444v1.245l-3.099,3.733c0,1.02,0.827,1.861,1.861,1.861l29.808,0.007     c1.027-0.007,1.861-0.837,1.861-1.865L110.111,88.553z M98.927,93.514l-4.967-0.007c-0.168,0.007-0.308-0.132-0.308-0.308     s0.14-0.308,0.308-0.308h4.967c0.172,0,0.308,0.14,0.311,0.308C99.238,93.374,99.102,93.514,98.927,93.514z M91.329,92.279     l0.948-1.138h8.339l0.952,1.131L91.329,92.279z M108.357,86.345c0,0.601-0.487,1.092-1.081,1.092H85.613     c-0.594,0-1.084-0.49-1.084-1.084V73.35c0-0.594,0.49-1.084,1.084-1.084h21.663c0.594,0,1.081,0.49,1.081,1.084V86.345z" fill="#FFFFFF"/>
			<path d="M30.424,88.553v-1.245l0.004-7.451v-7.451c0-0.684-0.555-1.245-1.242-1.253H4.348     c-0.687,0.007-1.245,0.558-1.245,1.245v7.451v7.458v1.238L0,92.272c-0.004,1.027,0.834,1.865,1.861,1.865h29.808     c1.031,0,1.865-0.837,1.861-1.865L30.424,88.553z M19.247,93.514H14.28c-0.172-0.007-0.308-0.14-0.311-0.315     c0-0.168,0.143-0.308,0.315-0.308h4.964c0.172,0.007,0.311,0.14,0.311,0.308C19.555,93.374,19.415,93.514,19.247,93.514z      M11.646,92.272l0.945-1.131l8.346,0.007l0.948,1.131L11.646,92.272z M28.677,86.352c-0.004,0.594-0.49,1.084-1.088,1.084H5.927     c-0.591,0-1.077-0.49-1.077-1.092V73.358c0-0.601,0.487-1.084,1.084-1.084L27.6,72.266c0.591,0,1.077,0.49,1.077,1.092     C28.677,73.358,28.677,86.352,28.677,86.352z" fill="#FFFFFF"/>
		</g>
		<g>
			<path d="M44.822,81.36c-0.072,0-0.111,0.043-0.136,0.104c0.115,0.057,0.222,0.118,0.34,0.19     C44.94,81.564,44.868,81.464,44.822,81.36z" fill="#FFFFFF"/>
			<path d="M76.813,72.126c1.65-3.174,2.588-6.782,2.588-10.618c0-7.247-3.343-13.703-8.557-17.941     c0.404,0.372,0.787,0.734,1.102,1.02c1.61,1.482,3.01,3.203,4.141,5.068c-0.029,0-0.05,0.007-0.075,0.021     c0.773,1.117,1.374,2.369,1.865,3.665c-0.276-0.387-1.217-0.973-0.762-0.064c0.222,0.451,0.762,0.687,0.927,1.12     c0.115-0.014,0.05-0.168,0.143-0.175c0.111,0.222-0.029,0.483,0.222,0.644c0.322,1.063,0.565,2.162,0.734,3.285     c-0.97,0.265-1.761,1.242-2.369,0.057c-0.322-0.63-0.483-1.07-0.92-1.657c-0.326-0.437-0.784-0.777-0.909-1.342     c-0.215-0.923-1.729-1.482-1.775-2.494c-0.011-0.154-0.387-0.877-0.354-0.898c0.089-0.079,0.061-0.458,0.072-0.569     c0.021-0.383,0.107-0.676,0.007-1.066c-0.823,0.222-1.517-0.115-2.355-0.193c0.029-0.014,0.068-0.036,0.075-0.064     c-0.247-0.215-0.412-0.372-0.701-0.53c0.322-0.329-0.007-0.19-0.054-0.394c-0.061-0.29,0.701-0.165,0.834-0.215     c-0.014-0.036-0.107-0.082-0.104-0.122c-0.304-0.054-0.258,0.261-0.594,0.029c-0.254-0.186-0.293-0.075-0.53-0.029     c0.029,0.075,0.05,0.122,0.043,0.2c0,0-0.412-0.297-0.372-0.075c0.247,0.233,0.379,0.472,0.669,0.705     c-0.168,0.089-0.329-0.007-0.469-0.132c0.014,0.064,0.093,0.433,0.154,0.462c-0.336-0.036-0.537-0.197-0.397-0.483     c-0.258-0.029-0.812-0.573-0.862-0.841c-0.079-0.48-0.734-0.54-0.784-0.841c-0.118-0.011-1.46-0.941-1.417-0.673     c0.061,0.426,0.759,1.02,1.199,1.063c0.068,0.354,0.734,0.265,0.748,0.659c-0.641-0.168-0.397-0.222-0.319,0.236     c-0.007-0.057-0.365,0.501-0.415,0.218c0.669,0.064-1.46-1.607-1.374-1.417c-0.476-0.483-0.555-0.673-1.177-0.351     c-0.304,0.154-1.313-0.383-1.049,0.293c-0.014,0.05-1.41,0.651-0.805,0.916c-0.183,0.254-0.469,0.469-0.727,0.573     c-0.308-0.118-0.88,0.315-1.059,0.036c-0.225-0.361-0.372-0.222-0.741-0.243c-0.379-0.036-0.054-1.296-0.054-1.46     c0-0.236-0.197-0.551,0.293-0.519c0.419,0.032,0.823,0.132,1.249,0.172c0.469-0.068,0.655,0.107,0.619-0.54     c-0.007,0.004-0.014,0.014-0.018,0.014c0.286-0.472-1.002-0.605-1.002-0.852c0-0.168,0.748-0.014,0.837-0.036     c0-0.082-0.05-0.147-0.057-0.243c0.601,0.054,0.68-0.175,1.195-0.283c0.426-0.089,0.372-0.548,0.88-0.508     c0.154,0.007,0.698,0.043,0.562-0.19C64.512,44,64.516,44,65.064,43.789c0.025,0.161,0.107,0.218,0.143,0.283     c-0.021,0-0.05,0.093-0.075,0.208c0.104,0.014,0.175,0.057,0.154,0.19c-0.018-0.086-0.118-0.05-0.183-0.079     c-0.025,0.122-0.043,0.222-0.018,0.157c0.279,0.029,0.612,0.007,0.895,0.05c-0.047,0.333,1.016-0.043,1.267,0.057     c-0.007,0.025-0.021,0.05-0.021,0.064c0.104,0.007,0.215,0.007,0.315,0.014c-0.079-0.573,0.959-0.802,0.959-0.648     c0-0.143-0.458-0.308-0.329-0.372c0.397-0.204,0.859,0.104,1.285-0.057c-0.165-0.179-2.172-0.118-1.872-0.501     c-0.175-0.047-0.154-0.165-0.236-0.272c0.072,0.011,0.902-0.29,0.891-0.322c-0.161-0.394-0.816-0.054-0.895,0.061     c0.061,0.19-0.855,0.1-0.816,0.383c0.054,0.297,0.412,0.218,0.487,0.487c0.011,0.047-0.895,0.415-0.322,0.523     c0.007,0.222-0.68,0.397-0.834,0.383c-0.132-0.025-0.404-0.544-0.476-0.655c-0.175-0.251-0.251-0.447-0.544-0.265     c-0.104,0.061-0.963,0.283-0.991-0.032c-0.007-0.082,0.147,0.007,0.132-0.132c-0.118-0.014-0.118-0.014-0.222,0.004     c0.029-0.047,0.075-0.086,0.125-0.107c-0.605-0.419,0.548-0.648,0.816-0.616c-0.089-0.018-0.125-0.029-0.2-0.047     c0.168-0.007,1.51-0.551,1.557-0.691c-0.186,0.011-0.251,0.039-0.433,0.032c0.032-0.014,0.111-0.032,0.14-0.036     c-0.039-0.004-0.118-0.018-0.118-0.018c0.021-0.075,0.619-0.021,0.637-0.021c-0.057-0.007-0.057-0.007-0.122-0.007     c0.097-0.039,0.2-0.061,0.304-0.039c-0.047-0.021-0.032-0.021-0.072-0.029c0.279-0.082,0.623,0,0.916-0.043     c-0.218-0.039,0.519-0.168,0.451,0.043c0.297,0.029,0.608,0.132,0.927,0.286c-3.579-2.276-7.816-3.6-12.369-3.6     c-12.751,0-23.094,10.346-23.094,23.094c0,8.417,4.499,15.768,11.22,19.802c-0.136-0.197-0.029-0.412-0.136-0.644     c-0.147-0.308-0.39-0.358-0.394-0.791c0-0.859-0.057-1.392-0.404-2.237c-0.372-0.49-0.315-1.56-0.412-2.165     c-0.208-0.573-0.29-1.167-0.533-1.732c-0.265-0.616-1.013-1.034-1.675-1.124c-0.852-0.147-0.984-0.88-1.507-1.446     c-0.437-0.462-0.877-0.998-1.228-1.517c-0.179-0.229-0.523-0.251-0.623-0.659c-0.097-0.372,0.265-0.523,0.261-0.859     c-0.508-0.279-0.358-0.351-0.344-0.902c0.011-0.476,0.659-0.977,0.648-1.467c-0.132-0.043-0.168-0.111-0.115-0.222     c-0.1-0.462-0.694-1.224-0.1-1.467c-0.118-0.63,0.659-1.063,1.131-1.27c0.104-0.05,0.218-0.372,0.358-0.183     c0.075,0.072,0.061,0.147-0.036,0.222c0,0.154-0.093,0.888,0.247,0.873c0.147-0.021-0.419-0.798,0.354-0.845     c-0.072-0.14-0.222-0.075-0.251-0.222c0.276-0.007,0.608,0.229,0.769,0.419c0.122,0.14,0.619,0.075,0.791,0.125     c0.236,0.089,0.691-0.218,1.009-0.218c-0.036,0.036-0.118,0.05-0.157,0.036c0.104,0.523,1.26,0.651,1.578,1.124     c0.254,0.372,1.335,0.476,1.743,0.462c0.472-0.036,1.281,1.124,1.059,1.417c-0.336,0.447,0.147,1.006,0.573,0.959     c0.429-0.05,0.036-0.812,0.866-0.469c0.311,0.14,0.429,0.118,0.515,0.483c0.387-0.043,0.888-0.19,1.338-0.064     c0.447,0.132,0.723,0.419,1.199,0.519c1.024,0.222,0.047,2.104-0.193,2.559c-0.179,0.351,0.347,1.517,0.272,2.018     c-0.225,0.888-0.358,1.202-1.124,1.693c-0.211,0.125-0.605,0.544-0.551,0.837c0.075,0.243,0.15,0.497,0.233,0.741     c-0.143,0.168-0.211,0.365-0.208,0.58h-0.004c-0.075,0.558-0.286,1.056-0.394,1.628c-0.075,0.383-1.253,0.558-1.299,0.44     c0.225,0.587,1.059,0.336,0.666,1.224c-0.14,0.315-0.619,0.376-0.905,0.447c-0.344,0.082,0.014,0.476,0.004,0.659     c0.157,0.372-0.39,0.19-0.608,0.243c-0.419,0.118,0.626,0.594,0.555,0.447c0.104,0.222-0.247,0.104-0.319,0.125     c0.097,0.222,0.422,0.748,0.014,0.938c-0.619,0.383,0.469,0.601,0.576,0.902c2.666,1.077,5.579,1.678,8.632,1.678     c8.736,0,16.334-4.849,20.256-12.003C76.602,72.355,76.695,72.223,76.813,72.126z M68.077,43.76     c-0.004,0.075-0.057,0.168-0.161,0.157c-0.075,0-0.1-0.057-0.107-0.082c0.068,0,0.111-0.021,0.179-0.021     C67.791,43.664,68.016,43.728,68.077,43.76z M67.146,43.882c-0.05,0.061-0.1,0.118-0.154,0.19     C66.882,43.972,67.1,43.875,67.146,43.882z M65.711,44.308c-0.172,0.007-0.1,0.344-0.372,0.161c0.032-0.036,0.054-0.036,0.068,0     c0.061,0,0.115-0.036,0.111-0.064C65.124,44.315,65.504,43.957,65.711,44.308z M63.829,41.427     c-0.029,0.007-0.047,0.007-0.061,0.014c0.054,0.021,0.1,0.021,0.136,0.036c-0.107-0.021,0.236,0.025,0.279,0.032     c-0.222-0.193,0.236-0.075,0.243-0.068c0,0.021-0.014,0.021-0.014,0.043c0.1-0.021,0.24,0,0.379,0.025     c-0.021-0.007-0.047-0.025-0.054-0.047c0.082,0.007,0.168,0,0.258,0c-0.025,0-0.265-0.014-0.272-0.014     c-0.047,0-0.251,0.014-0.286-0.061c0.068,0,0.132,0,0.19,0.007v-0.007c0.032,0,0.061,0,0.089,0     c-0.007-0.011-0.021-0.014-0.032-0.018c0.387,0.004,0.984-0.075,1.338,0.097c-0.125,0.025-0.727,0.111-1.063,0.075     c0.057,0.025,0.107,0.039,0.147,0.061c-0.018,0.007-0.039,0-0.064,0c0.179,0.021,0.404,0.057,0.587,0.14     c-0.175,0.014-0.236,0.054-0.39,0.064c-0.018-0.014-0.018-0.036-0.004-0.05c-0.075,0-0.208-0.014-0.279-0.021     c0.004-0.039,0.075-0.025,0.079-0.057c-0.043,0-0.086-0.036-0.118-0.064c-0.251,0.064-0.995,0.333-1.016,0.057     c0.125,0,0.233,0.011,0.361,0.007c-0.05-0.018-0.426,0-0.433-0.064c0,0,0.218-0.029,0.336-0.043c-0.147,0-0.419,0.029-0.49-0.025     c0.014-0.011,0.021-0.011,0.036-0.011c-0.079-0.007-0.154-0.029-0.132-0.057c-0.057-0.007-0.104-0.029-0.161-0.05     C63.56,41.402,63.689,41.398,63.829,41.427z M63.446,41.502L63.446,41.502C63.442,41.506,63.442,41.506,63.446,41.502     C63.442,41.506,63.442,41.502,63.446,41.502z M63.439,41.502c0.057,0.025,0.115,0.039,0.154,0.079     C63.503,41.574,63.374,41.52,63.439,41.502z M72.794,50.542c0.007,0.14-0.462,0.419-0.523,0.132     C72.404,50.621,72.636,50.549,72.794,50.542z M70.482,50.46c-0.157,0.075-0.512-0.05-0.651-0.125     C70.049,50.317,70.303,50.396,70.482,50.46z M67.182,49.215c-0.018,0.082-0.029,0.419-0.036,0.419     c-0.136-0.014-0.737-0.351-0.755-0.465C66.506,49.136,67.05,49.179,67.182,49.215z M65.336,47.618     c0,0.043,0.021,0.079,0.054,0.086c-0.018,0.1-0.029,0.301-0.054,0.344c-0.1-0.029-0.154-0.279-0.218-0.358     C65.196,47.69,65.268,47.665,65.336,47.618z M65.232,48.402c-0.007-0.075-0.104-0.125-0.122-0.208     C65.869,48.087,65.332,49.215,65.232,48.402z M63.732,48.459c0.007,0.107-0.215-0.05-0.222-0.061     C63.628,48.313,63.7,48.334,63.732,48.459z M61.717,43.377c-0.072,0.05-0.14,0.082-0.222,0.115     c0.093,0.179,0.268,0.215,0.54,0.075c0.036,0.154-0.272,0.272-0.301,0.361c0.358,0.093,0.895,0.455,0.916,0.816     c0.061-0.014,0.072-0.029,0.104-0.036c0.204-0.097,0.204,0.129-0.011,0.376c0.061,0.011,0.125,0.025,0.193,0.047     c0,0.075-1.578,0.208-1.761,0.2c0.104-0.19,0.626-0.265,0.623-0.372c-0.072,0.064-0.569-0.032-0.569-0.064     c0-0.118,0.186-0.147,0.186-0.372c0.147,0.011,0.408,0.014,0.404-0.179c-0.143,0-0.258-0.021-0.154-0.157     c-0.057-0.007-0.437,0.039-0.433-0.057c0.004-0.211,0.247-0.104-0.057-0.254c-0.05,0.036-0.021,0.061,0,0.075     c-0.029,0-0.05,0-0.075,0c0-0.215-0.032-0.172-0.029-0.34c-0.129-0.025-0.2-0.054-0.197-0.107c0.021,0,0.24,0.064,0.24,0.029     C60.962,43.478,61.732,43.084,61.717,43.377z M61.309,44.347c0-0.032,0.007-0.061,0.064-0.075c0.007,0,0.036,0.007,0.043,0.007     c0,0.014-0.007,0.036-0.007,0.072C61.392,44.351,61.363,44.351,61.309,44.347z M60.984,43.342c0,0.064-0.075,0.111-0.175,0.107     C60.629,43.445,60.962,43.342,60.984,43.342z M60.042,44.287c0.007-0.104,0.304-0.075,0.372-0.104     c-0.175-0.19,0.286-0.183,0.372-0.161c0.526,0.039,0.136,0.272,0.136,0.333c-0.011,0.433-0.301,0.569-0.777,0.533     c-0.497-0.039,0.021-0.347,0.057-0.469C60.153,44.376,60.103,44.329,60.042,44.287z M47.144,41.982     c0.093-0.004,0.193-0.004,0.283-0.004c-0.061,0.004-0.118-0.004-0.168-0.036c0.064-0.039,0.15-0.025,0.233-0.025     c-0.007-0.007-0.029-0.014-0.039-0.021c0.107-0.021,0.215-0.021,0.322-0.029c-0.047-0.011-0.136-0.011-0.097-0.032     c0.183,0,0.562,0.165,0.684,0.086l-0.011-0.007c0.143-0.007,0.115,0.014,0.018,0.075c0.183-0.1,0.229,0.125,0.533-0.079     c0.018-0.014-0.14-0.064-0.2-0.075c0.143,0,0.175-0.007,0.089-0.036c-0.147,0-0.265-0.018-0.29-0.054     c0.057-0.007,0.115-0.021,0.168-0.029c-0.075,0.007-0.157,0.007-0.24,0.007c0.132-0.047,0.254-0.047,0.401-0.054     c-0.143-0.018-0.276,0.043-0.419,0.018c0.079-0.014,0.125-0.018,0.193-0.036c-0.125,0.018-0.243,0.025-0.369,0.025     c0.669-0.247,2.559-0.419,3.232-0.179c-0.351,0.089,0.569-0.05,0.53,0.032c-0.029,0.068-0.576,0.068-0.623,0.075     c0.025,0.007,0.183-0.007,0.272-0.007c-0.483,0.14-1.009,0.122-1.492,0.243c0.047,0,0.086,0,0.129,0     c-0.032,0.029-0.075,0.029-0.168,0.029c0.047,0.014,0.093,0.014,0.097,0.043c-0.222,0.047-0.34,0.093-0.562,0.118     c-0.043,0.104-0.243,0.057-0.333,0.143c0.061-0.011,0.218-0.021,0.197,0.004c-0.365,0.358-1.228,0.043-1.772,0.093     c0.107-0.032,0.222-0.054,0.333-0.054c-0.304-0.14,0.383-0.061,0.476-0.072c-0.147-0.111-0.404-0.089-0.551-0.057     c0.004,0.014,0.018,0.018,0.011,0.039c-0.132,0-0.533-0.039-0.644,0.007c0.021,0,0.047,0,0.075-0.004     c-0.025,0.004-0.054,0.011-0.097,0.014c0.007-0.004,0.018-0.011,0.021-0.011c-0.032,0-0.072-0.007-0.093-0.047     c0.157-0.029,0.319-0.05,0.48-0.05c-0.068-0.007-0.308-0.025-0.458-0.025c0.014,0,0.029,0,0.043-0.014     C47.169,42.043,47.065,42.043,47.144,41.982z M49.156,42.74c-0.143,0.075-0.451,0.061-0.601,0.068     c-0.014,0-0.236-0.05-0.179-0.089C48.551,42.579,48.973,42.701,49.156,42.74z M46.579,42.014c0.075,0,0.15,0,0.183-0.007     c-0.018,0.014-0.043,0.036-0.064,0.043C46.79,42.05,46.5,42.057,46.579,42.014z M46.847,42.232     C46.89,42.225,46.901,42.232,46.847,42.232L46.847,42.232c-0.132,0-0.573,0.029-0.297-0.007     C46.407,42.114,46.983,42.071,46.847,42.232z M47.058,42.254c-0.05,0.032-0.1,0.047-0.161,0.047     c-0.029,0-0.315-0.014-0.315-0.014C46.74,42.254,46.901,42.264,47.058,42.254z M47.334,42.433     c-0.075,0.007-0.15,0.007-0.225,0.007c-0.054,0.061,0.136,0.025,0.183,0.047c-0.122,0.029,1.593-0.118,1.614-0.014     c-0.036,0-0.075,0.014-0.107,0.036c0.036,0,0.075,0,0.075,0c-0.429,0.265-1.238-0.122-1.618,0.086     c-0.104,0.004-0.805-0.004-0.433-0.075c-0.029-0.115-0.093-0.14-0.208-0.075c-0.097,0-0.19-0.021-0.283-0.061     C46.418,42.336,47.305,42.343,47.334,42.433z M46.5,42.544c0.175,0.086-0.483,0.075-0.49,0.075     c0.032-0.025,0.115-0.039,0.125-0.039C46.257,42.511,46.375,42.504,46.5,42.544z M45.455,42.189c0.018,0,0.05-0.014,0.072-0.021     c-0.075,0-0.082-0.007-0.043-0.025c0.154-0.021,0.619-0.075,0.734,0.047c-0.021,0-0.057,0.007-0.075,0.021     c0.05,0.047-0.129,0.072-0.326,0.075c-0.05,0.014-0.104,0.014-0.172,0.018c0.036-0.004,0.079-0.011,0.122-0.018     c-0.165,0-0.336-0.021-0.372-0.054c0.086,0.007,0.172-0.014,0.243-0.057C45.519,42.189,45.473,42.196,45.455,42.189z      M45.097,42.322c0.136-0.007,0.075,0.043,0.157,0.05c-0.032,0.014-0.079,0.029-0.118,0.032     C45.079,42.404,45.051,42.35,45.097,42.322z M45.076,42.483L45.076,42.483c0-0.068,0.254,0.029,0.326,0.043h0.007     c-0.018-0.007-0.036-0.014-0.039-0.021c0.111-0.075,0.215,0.032,0.344-0.047c-0.093,0.011-0.168,0.011-0.143-0.021     c0.043-0.007,0.519,0,0.519,0c0,0.301-0.591,0.115-0.712,0.193c0.075-0.054,0.233-0.068,0.304-0.079     c-0.072-0.032-0.168-0.025-0.272-0.025c0,0.007,0.004,0.007,0.004,0.007s-0.004,0-0.011-0.007     c-0.115,0.021-0.233,0.032-0.315,0.039c0.007-0.011,0.011-0.014,0.021-0.032c-0.068,0.018-0.075,0-0.097-0.007L45.076,42.483z      M45.598,42.812c-0.104,0.05-0.211,0.075-0.319,0.093c0.075-0.004,0.283-0.072,0.129,0.039c0.021,0,0.089,0.007,0.118,0.007     c-0.215,0.132-0.748,0.315-0.952,0.036c0.15-0.097,0.297,0.007,0.455-0.097C44.603,42.88,45.562,42.837,45.598,42.812z      M44.922,43.492c-0.107,0.039-0.845,0.039-0.458-0.032C44.317,43.492,45.043,43.238,44.922,43.492z M44.764,42.665     c-0.05,0.007-0.054,0-0.1,0.007c0.086-0.043,0.157-0.057,0.251-0.075C44.897,42.658,44.843,42.69,44.764,42.665z M44.095,42.315     c0.086-0.054,0.361-0.032,0.519-0.032c0.032-0.007,0.072-0.011,0.104-0.014c-0.014,0.007-0.054,0.014-0.104,0.014     c-0.025,0-0.054,0.007-0.075,0.007c0.011,0.007,0.025,0.018,0.025,0.032c-0.308,0.036-0.347,0.043-0.118,0.029     c-0.068,0.05-0.272,0.075-0.383,0.075c-0.129,0.007,0.072-0.075,0.254-0.122C44.238,42.286,44.167,42.293,44.095,42.315z      M43.948,42.365c-0.064,0.043-0.115,0.043-0.161,0.007C43.845,42.343,43.898,42.343,43.948,42.365z M43.587,42.497     c0.061-0.007,0.118-0.007,0.175-0.014c-0.05,0.029-0.104,0.054-0.161,0.043C43.576,42.519,43.555,42.511,43.587,42.497z      M43.522,42.426c0.075,0.021,0.047,0.047-0.086,0.061c-0.05,0.075-0.132,0.1-0.236,0.079     C43.283,42.458,43.394,42.408,43.522,42.426z M43.079,42.651c0.054-0.036,0.097-0.036,0.161-0.036     c-0.014-0.004-0.025-0.007-0.036-0.007c0.054-0.025,0.107-0.036,0.165-0.036c-0.018,0-0.029-0.014-0.004-0.025     c0.261-0.032,0.533,0.157,0.82,0.05c-0.057,0.011-0.075,0-0.093-0.007c0.05,0,0.089-0.007,0.115-0.036     c-0.222-0.007,0.261-0.089,0.311-0.089c-0.261,0.122,0.276,0.082,0.229,0.115c-0.376,0.222-0.984,0.043-1.396,0.132     c0,0.082-0.064,0.104-0.193,0.075c0.057-0.039,0.122-0.064,0.193-0.075c0,0,0-0.007,0-0.011c-0.036,0-0.082,0.025-0.107,0.032     c-0.107,0.021-0.215,0.036-0.322,0.021c0.05-0.072,0.115-0.104,0.197-0.089C43.104,42.658,43.089,42.651,43.079,42.651z      M42.08,43.399c0.072-0.064,0.361-0.308,0.54-0.387c-0.014,0-0.021,0-0.036-0.004c0.047-0.036,0.089-0.064,0.136-0.097     c0.007,0.036,0,0.057-0.007,0.072c0.047,0,0.068,0.018,0.05,0.097c0.29-0.072,0.755,0.093,0.709,0.093     c0.276-0.014,0.551-0.451,0.923-0.319c-0.021-0.007-0.333,0.193-0.361,0.243c-0.136,0.286,0.021,0.111,0.222,0.272     c-0.097,0.029-0.29,0.007-0.372,0.075c0.014-0.014,0.05,0.054,0.05,0.054c-0.265,0.129-1.836,0.183-1.911,0.104     c-0.018-0.011-0.125-0.004-0.208,0c0.229-0.183,0.354-0.172,0.641-0.204C42.345,43.356,42.17,43.385,42.08,43.399z      M41.751,43.653c0.072-0.011,0.064,0.018,0.054,0.089c-0.047,0.014-0.143,0.014-0.204,0.036     C41.647,43.735,41.701,43.692,41.751,43.653z M38.036,56.505c0.029-0.082,0.075-0.132,0.154-0.154     c0.036-0.082,0.036-0.161,0.093-0.097C38.111,56.737,38.083,56.404,38.036,56.505z M39.213,58.756     c-0.673,0.021-0.372-0.351-0.293-0.336c0.118,0.029,0.222,0.154,0.268,0.204c0-0.014-0.004-0.029-0.004-0.043     C39.231,58.627,39.231,58.684,39.213,58.756z M39.221,57.496c0.2-0.472,0.05-1.224-0.655-1.303     c-0.183-0.619-0.247,0.161-0.809,0.079c0.569-0.723,1.002-0.841,1.628-0.225c0.2,0.204,0.662,0.855,0.637,1.027     c0.311,0.097,0.082,0.268,0.229,0.483C39.922,57.993,39.575,57.553,39.221,57.496z M40.176,54.876     c0.032-0.057,0.075,0.168,0.05,0.222C40.115,55.331,40.155,54.905,40.176,54.876z M41.121,58.809     c-0.021-0.222-0.361,0.308-0.444,0.286c-0.004,0-0.505-0.902-0.716-0.322c-0.548-0.322,0.526-0.419,0.591-0.387     c0.007-0.1,0.025-1.127,0.286-0.734c0.118,0.2,0.301,0.047,0.472,0.075c0.354,0.057,0.308,0.404,0.44,0.648     c-0.025-0.086-0.032-0.118,0.004,0.014c-0.004-0.004-0.004-0.007-0.004-0.014c0.039,0.154,0.132,0.476,0.132,0.455     C41.851,58.824,41.121,58.824,41.121,58.809z M40.348,54.214c0.043-0.047,0.132-0.082,0.183-0.082     c0.068,0.007,0.064,0.075,0.064,0.111C40.491,54.246,40.402,54.218,40.348,54.214z M41.021,56.651     c-0.018,0.147-0.104,0.222-0.268,0.211C40.598,56.812,40.989,56.687,41.021,56.651z M40.749,54.318     c-0.004,0.039-0.004,0.075-0.004,0.111C40.709,54.436,40.72,54.361,40.749,54.318z M42.241,59.124     c0.079-0.243,0.472,0.082,0.48,0.204C42.599,59.504,42.162,59.375,42.241,59.124z M47.18,48.592     c-0.372,0.208,0.014-0.426,0.515-0.455c-0.132,0.021-0.157-0.018-0.086-0.118c-0.372,0.007-0.991,0.44-1.288,0.372     c-0.315-0.068-1.267,0.716-0.741,0.705c-0.322,0.115-0.798,0.093-1.149,0.247c0.068,0,0.268-0.05,0.319,0.007     c-0.2,0.057-1.074,0.369-1.02,0.497c-0.157,0.097-0.215,0.608-0.523,0.605c0.018,0.004,0.125-0.444,0.136-0.487     c-0.064,0.075-0.333,0.526-0.308,0.608c0.018,0,0.05,0,0.068,0c-0.043,0.104-0.125,0.183-0.247,0.215     c0,0.068,0.039,0.079,0.079,0.093c-0.093,0.118-0.34,0.075-0.172,0.251c-0.211,0.161-0.483,0.197-0.701,0.347     c0.004,0,0.007,0.018,0.014,0.021c-0.888,0.372-1.678,0.759-1.793,1.818c-0.029,0.265-0.344,1.449-0.741,1.403     c-0.358-0.05,0.319-1.754,0.276-1.9c-0.004-0.014-0.995-0.183-0.945-0.272c-0.15,0.036-0.301,0-0.472,0.057     c0.057,0.043,0.047,0.043,0.111,0.014c-0.107,0.161-0.236,0.254-0.19,0.354c-0.293,0.129-0.558-0.458-0.952-0.243     c-0.587,0.311-1.013,0.587-1.349,1.177c-0.007,0-0.014-0.004-0.018-0.004c-0.086,0.208-1.814,3.078-1.016,3.246     c1.088,0.229,1.134-1.299,2.316-1.092c-0.15,0.308-0.412,0.53-0.551,0.841c-0.097,0.2-0.186,0.301-0.283,0.415     c-0.136,0.222-1.338,1.213-0.293,1.263c1.26,0.082,0.326,1.27,0.075,1.922c-0.218,0.573-0.687,2.462,0.401,2.001     c0.519-0.222,0.526,0.558,0.612,0.852c-0.036,0.057-0.422,0.404-0.422,0.404c-0.025-0.175,0.172-0.784-0.068-0.88     c-0.487-0.168-0.523,0.977-0.759,0.873c-0.465-0.183-0.236-1.965-0.583-2.076c-0.039,0.05-0.072,0.125-0.068,0.168     c-0.029-0.014-0.054-0.021-0.086-0.036c-0.089-0.358,0.222-0.727,0.197-1.106c-0.021-0.336-0.075-0.623,0.018-0.959     c-0.308-0.097-0.601-0.315-0.759-0.712c-0.061-0.147,0.014-0.895-0.147-0.927c-0.107-0.433-0.304,0.122-0.501,0.072     c-0.225-0.061-0.29-0.798-0.476-0.798c0.616-3.339,1.979-6.528,3.965-9.294c0.973-1.364,2.104-2.605,3.35-3.722     c0.408-0.372,0.898-0.805,1.521-0.587c0.107,0.036,0.429,0.007,0.608-0.143c-0.007,0-0.018,0-0.021,0     c-0.1,0.018-0.412,0.075-0.369,0.032c0.043-0.032,0.179-0.032,0.369-0.032c0.018,0,0.029,0,0.029,0c-0.004,0-0.007,0-0.007,0     c0.483,0.025,1.263,0.111,1.542,0.047c0.043-0.039,0.107-0.068,0.104-0.075c0,0.036-0.043,0.057-0.104,0.075     c-0.047,0.029-0.068,0.043,0.057,0.029c0.197-0.154,0.515-0.111,0.598-0.229c-0.068,0.011-0.107,0.018-0.168,0.036     c0.061-0.036,0.111-0.061,0.168-0.097c0.061-0.043-0.279-0.075-0.222-0.111c0.215-0.161,0.988-0.183,0.805-0.043     c-0.082,0.029-0.157,0.057-0.243,0.075c0.014,0.05,0.19,0.007,0.251,0.036c-0.254,0.075,0.054,0.014-0.115,0.154     c-0.032,0,0.641-0.161,0.508-0.054c-0.161-0.007-0.225,0.054-0.2,0.172c0.19,0.183,0.744-0.319,0.888-0.361     c-0.007,0-1.142-0.018-1.006-0.122c0.161,0.072,0.301,0.057,0.412-0.043c-0.039-0.021-0.39-0.029-0.39-0.029     c-0.075-0.154,0.426-0.215,0.512-0.251c-0.136,0.043-0.383,0.025-0.523,0.089c0.021,0,0.05,0,0.075-0.007     c-0.122,0.075-0.24,0.104-0.376,0.097c0.408-0.283,0.612-0.283,1.17-0.304c-0.089,0.043-0.175,0.068-0.272,0.093     c0.268-0.057,0.505-0.057,0.762-0.043c-0.097,0.021-0.544,0.136-0.404,0.136c-0.297,0.136,0.956-0.29,1.031-0.075     c0.007,0.014-0.054,0.118-0.079,0.118c0.53,0,0.97,0.168,1.474,0.186c-0.004,0.014-0.007,0.025-0.014,0.036     c0.061-0.011,0.115,0.004,0.157,0.054c-0.061,0.014-0.115,0-0.154,0.036c0.061-0.014,0.122,0,0.172,0.025     c-0.072,0.021-0.1,0.021-0.154,0.061c0.043,0.021,0.659,0.222,0.651,0.24c-0.043,0.283-0.497,0.154-0.719,0.122     c-0.025,0.057-0.068,0.007-0.097,0.079c0.122-0.007,0.168,0.154,0.336,0.129c-0.125,0.419-0.111,0.179-0.594,0.261     c-0.007-0.018,0.526,0.247,0.243,0.315c-0.354,0.075-0.777-0.186-0.995-0.29c-0.086-0.05-1.031,0.064-0.991,0.011     c0.204-0.272,0.748-0.19,1.041-0.322c-0.229-0.075,0.598-0.222,0.319-0.415c-0.004,0.183-0.447,0.057-0.444,0.05     c0.115-0.075,0.236-0.1,0.369-0.089c-0.075-0.029-0.394-0.05-0.401-0.043c0.054-0.014,0.107-0.021,0.165-0.043     c-0.039-0.039-0.079-0.064-0.125-0.064c-0.075,0-0.147,0.025-0.2,0.072c0.075-0.061,0.14-0.075,0.2-0.072     c0.004,0,0.011-0.004,0.018-0.004c-0.143-0.075-0.662,0.061-0.555-0.025c-0.079,0-0.218,0-0.372,0.007     c0.111,0.014,0.236,0.068,0.351,0.064c-0.215,0.19-0.637,0.387-1.084,0.519c0.097-0.021,0.057,0.021,0.068,0.05     c-0.082,0-0.104-0.021-0.075-0.05c-0.075,0.021-0.15,0.043-0.229,0.068c0,0.018,0.007,0.032,0,0.054     c0.075-0.029,0.383,0.007,0.419,0.097c0.004,0.021-0.039,0.05-0.025,0.064c0.064,0.043,0.208,0.014,0.225,0.061     c-0.315,0.086-0.848,0.143-1.17,0.161c-0.079,0-0.018-0.032,0.036-0.075c-0.093-0.014-0.229,0.007-0.286,0.007     c0.107-0.086,0.397-0.247,0.612-0.344c-0.243,0.036-0.476,0.036-0.662-0.025c-0.025,0.104,0.218,0.075,0.404,0.089     c-0.268,0.225-0.952,0.308-1.356,0.268c0.036,0.014,0.072,0.039,0.1,0.061c-0.354,0.319-1.206,0.587-1.646,0.877     c0.344-0.057,0.308,0.075,0.079,0.311c0.816-0.032,0.737,0.447,1.399,0.422c0.218,0.154-0.104,0.358-0.132,0.472     c0.086-0.011,0.229-0.007,0.161,0.075c-0.054,0.007-0.104-0.007-0.157-0.029c0.025,0.043,0.136,0.075,0.419,0.064     c0.319-0.358-0.047-0.483,0.576-0.734c0.78-0.308,0.211-0.308,0.193-0.719c0.848-0.183,0.505-0.931,1.625-0.39     c0.326,0.154,1.296,0.437,1.535-0.007c-0.15,0.258-0.054,0.293,0.079,0.336c-0.054-0.036-0.097-0.061-0.132-0.104     c0.286-0.39,0.909,0.44,0.415,0.608c0.075,0.047,0.143,0.111,0.34,0.111l-0.007,0.014c-0.165,0.272,0.659,0.2,0.591,0.279     c-0.118,0.111-0.651,0.161-0.873,0.225c0.021,0.118,0.966-0.129,1.052-0.161c0.29,0.973-2.616,0.877-3.217,1.36     c0.075-0.004,1.532-0.344,1.417-0.132c-0.1,0.175-0.372,0.132-0.523,0.225c0.082,0,0.175,0.025,0.222,0.025     c-0.519,0.637,0.651,0.558,0.594,0.673C48.408,48.313,47.402,48.474,47.18,48.592z M45.555,44.469     c-0.111,0.057-0.365,0.14-0.48,0.147c0.018-0.014,0.036-0.036,0.054-0.05C45.265,44.501,45.401,44.426,45.555,44.469z      M48.841,46.831C49.027,46.87,48.68,46.971,48.841,46.831L48.841,46.831z M48.819,47.117c-0.179,0.14-0.437-0.057-0.576-0.161     C48.558,46.913,48.665,47.042,48.819,47.117z M48.347,47.844c-0.115,0.236-0.544-0.014-0.508-0.075     c0.011-0.036,0.043-0.043,0.068-0.064C48.017,47.851,48.164,47.894,48.347,47.844z M48.522,47.983     c0.1-0.104,0.218-0.197,0.358-0.251c0,0.039,0.047,0.047,0.032,0.075c-0.039,0.075-0.204,0.111,0.021,0.111     C48.869,48.066,48.476,48.087,48.522,47.983z M49.771,47.665c0.004-0.004-0.472,0.247-0.447,0.2     c0.043-0.057,0.097-0.093,0.165-0.118c-0.118,0-1.174-0.079-1.167-0.082c0.05-0.111,0.215-0.075,0.265-0.186     c-0.032,0-0.064-0.014-0.064-0.039c0.419-0.125,0.744-0.755,1.188-0.755c0.14,0-0.404,0.44-0.415,0.469     c0.104-0.072,0.208-0.075,0.319-0.029c-0.054,0.021-0.086,0.061-0.093,0.1c0.061,0,0.118,0,0.179,0     c0,0.011-0.018,0.039-0.018,0.039c0.05,0,0.093-0.021,0.136-0.029c0.104,0.029,0.236,0.029,0.297,0     c-0.025,0.072-0.064,0.132-0.107,0.236c0.021-0.014,0.079-0.021,0.122-0.021c-0.082,0.165-0.061,0.075-0.122,0.229     c0.104,0.007,0.079-0.018,0.154-0.047C49.95,48.173,49.972,47.873,49.771,47.665z M55.658,42.862c-0.093,0.276-0.44-0.172-0.49,0     c0.082,0.043,0.551,0.111,0.497,0.304c-0.036,0.122-0.601-0.079-0.676-0.107c-0.029,0.082,0.064,0.082-0.104,0.104     c-0.025,0.082,0.501,0.075,0.616,0.097c-0.494,0.172-1.041,0.258-1.56,0.251c-0.336,0.093-0.537,0.322-0.923,0.308     c0.007-0.021,0.014-0.039,0.018-0.057c-0.358,0.072-0.787,0.798-0.973,0.777c-0.122-0.007-0.998-0.404-0.68-0.58     c-0.068-0.075-0.319-0.111-0.168-0.319c-0.025-0.007-0.054-0.007-0.075,0c0.057-0.19,0.365-0.222,0.48-0.365     c-0.111-0.025-0.376-0.039-0.365-0.104c0.104-0.025,0.254,0.107,0.322-0.004c-0.036,0-0.286-0.15-0.379-0.143     c0.107-0.054,0.115-0.093,0.007-0.115c0.157-0.397-0.684-0.397-0.909-0.34c0.007,0.004,0.014,0.011,0.025,0.014     c-0.075,0.014-0.147,0.004-0.218-0.036c0.032-0.007,0.054-0.011,0.072-0.032c-0.068-0.036-0.136-0.043-0.208-0.021     c0.086-0.132,0.372,0,0.476-0.118c-0.05,0-0.558,0.043-0.526-0.036c0.1-0.208,0.63-0.007,0.755-0.233     c-0.075,0.011-0.147,0-0.215-0.025c0.122-0.24,1.288-0.29,1.46-0.297c0.043-0.082,0.168-0.068,0.261-0.032     c-0.007-0.007-0.018-0.029-0.007-0.036c0.054-0.082,0.515,0,0.616,0c-0.072,0-0.136-0.014-0.193-0.064     c0.057-0.018,0.118-0.029,0.175-0.029c-0.018-0.014-0.05-0.014-0.061-0.021c1.152-0.265,2.434-0.204,3.618-0.175     c-0.082,0.075-0.218,0.115-0.379,0.14c0.132-0.014,0.225-0.018,0.222,0c-0.011,0.014-0.469,0.154-0.501,0.183     c0.129-0.021,2.366-0.293,2.344-0.258c-0.068,0.111-0.54,0.143-0.791,0.154c-0.072,0.125-0.973,0.322-1.134,0.412     c0.14-0.029,0.279-0.014,0.419,0.021c-0.036,0.007-0.082,0.021-0.122,0.021c0.086,0.011,0.165,0.039,0.24,0.075     c-0.064,0.154-0.537-0.068-0.601,0.089c-0.018,0.032,0.283,0.014,0.233,0.14c-0.043,0.122-0.2,0-0.236,0.089     c0.075,0.05,0.15,0.064,0.236,0.05c-0.054,0.05-0.186,0.075-0.311,0.075c-0.004,0.021,0.018,0.036,0.05,0.05     c-0.154,0.179-0.444,0.043-0.619,0.047C55.469,42.758,55.565,42.805,55.658,42.862z M55.948,43.37c0.089,0,0.261,0,0.344-0.014     c0.011,0.014-0.265-0.118-0.251-0.154c0.089-0.007,0.233-0.054,0.326-0.047c-0.089,0.208,0.118,0.122,0.19,0.086     c0.068,0.089,0.186,0.014,0.283,0.068c0.011-0.075,0.712-0.007,0.798,0c-0.183,0.054,0.089,0.183,0.039,0.268     c-0.673,0.293-1.027,0.021-1.657-0.029c0.025-0.021,0.05-0.029,0.068-0.029c0.036-0.054,0.072-0.075,0.115-0.118     C56.113,43.377,55.98,43.413,55.948,43.37z M74.598,68.415c-0.007,0.412,0.544,0.837,0.379,1.21     c-0.476,1.006,0.429,2.026-0.741,2.756c-0.408,0.251-0.941,0.483-1.024,1.013c-0.748,0.154-0.061,1.041-0.075,1.414     c-0.032,0.852-0.2,0.673-0.727,1.117c-0.555,0.469-0.021,0.88-0.501,1.439c-0.437,0.523-0.673,1.145-1.077,1.693     c-0.168,0.229-1.006,0.53-1.041,0.712c-0.447,0.057-0.83-0.057-1.267,0.175c-0.419,0.218-0.898-0.075-1.049,0.007     c0.014-1.482-1.163-2.602-1.335-4.144c-0.075-0.712-0.097-0.991-0.426-1.643c-0.344-0.684-0.637-1.446-0.497-2.215     c0.104-0.565,0.551-0.945,0.676-1.482c0.129-0.537-0.125-1.364-0.265-1.879c-0.154-0.558-0.19-1.253-0.551-1.707     c-0.365-0.462-1.002-1.077-0.762-1.732c0.369-1.006,0.544-2.047-0.916-2.026c-0.455,0.014-0.408-0.873-0.931-0.866     c-0.712,0.021-1.299,0.845-1.893,0.859c-0.247,0.007-0.447-0.222-0.701-0.211c-0.311,0-0.533,0.175-0.809,0.272     c-0.608,0.211-1.059-0.39-1.442-0.777c-0.505-0.519-0.605-1.21-1.077-1.739c-0.268-0.286-0.526-0.587-0.737-0.938     c0.014,0,0.025,0,0.036,0c0.004-0.404-0.254-0.805-0.054-1.117c0.211-0.326,0.351-0.773,0.365-1.163     c0.021-0.551-0.365-1.353-0.079-1.857c0.218-0.379,0.365-0.769,0.548-1.174c0.229-0.497,0.447-1.117,0.995-1.313     c0.304-0.111,0.666-0.422,0.762-0.741c0.104-0.336,0.032-0.73,0.251-1.024c0.311-0.44,0.684-0.82,1.013-1.249     c-0.007,0-0.014,0-0.021,0c0.369-0.501,0.938,0.057,1.578-0.322c0.523-0.293,1.167-0.619,1.775-0.648     c0.404-0.011,0.777,0,1.192-0.014c0.193-0.004,0.447-0.372,0.623-0.097c0.1,0.136,0.208,0.143,0.319,0.032     c-0.021,0.361-0.172,0.662-0.175,1.056c-0.004,0.705,0.673,0.476,1.084,0.608c0.376,0.125,1.847,1.721,1.825,0.497     c-0.025-1.063,1.542-0.154,1.929-0.011c0.555,0.2,0.977,0.268,1.525,0.068c0.412-0.154,0.784,0.118,1.21,0     c0.251,0.63,0.225,0.791,0.075,1.435c-0.236-0.039-0.469-0.641-0.673-0.87c0.036,0.673,0.669,1.467,0.977,2.054     c0.204,0.397,0.251,0.812,0.476,1.192c0.261,0.447,0.147,1.07,0.469,1.428c0.347,0.383,0.476,0.573,0.594,1.106     c0.147,0.691,1.27,1.145,1.421,1.8c0.215,0.945,0.515,0.712,1.296,0.573c0.44-0.089,0.852-0.322,1.267-0.462     c0.455,1.092-0.741,3.196-1.356,4.098c-0.705,1.027-1.854,1.406-2.147,2.741c-0.075,0.358-0.394,0.544-0.397,0.938     C74.512,67.66,74.598,68.029,74.598,68.415z" fill="#FFFFFF"/>
		</g>
	</g>
</g>
<g>
</g>
<g>
</g>
<g>
</g>
<g>
</g>
<g>
</g>
<g>
</g>
<g>
</g>
<g>
</g>
<g>
</g>
<g>
</g>
<g>
</g>
<g>
</g>
<g>
</g>
<g>
</g>
<g>
</g>
</svg>
